<?xml version="1.0" encoding="iso-8859-1"?>
<!-- Generator: Adobe Illustrator 26.0.1, SVG Export Plug-In . SVG Version: 6.00 Build 0)  -->
<svg version="1.1" id="Ebene_1" xmlns="http://www.w3.org/2000/svg" xmlns:xlink="http://www.w3.org/1999/xlink" x="0px" y="0px"
	 viewBox="0 0 1500 1500" style="enable-background:new 0 0 1500 1500;" xml:space="preserve">
<g>
	<path style="stroke:#000000;stroke-miterlimit:10;" d="M1089.638-905.023h-202.58c-96.174,0-174.138-77.964-174.138-174.138
		v-64.185c0-96.174,77.964-174.138,174.138-174.138h202.58c96.174,0,174.138,77.964,174.138,174.138v64.185
		C1263.776-982.987,1185.812-905.023,1089.638-905.023z"/>
	<polyline style="stroke:#000000;stroke-miterlimit:10;" points="824.151,-827.872 824.151,-924.311 961.865,-924.311 	"/>
</g>
<line style="stroke:#000000;stroke-miterlimit:10;" x1="1087.897" y1="-246.138" x2="1087.897" y2="-228.897"/>
<rect x="1115.483" y="-582.232" transform="matrix(-1.836970e-16 1 -1 -1.836970e-16 905.5517 -1432.3103)" style="stroke:#000000;stroke-miterlimit:10;" width="106.897" height="637.706"/>
<path style="stroke:#000000;stroke-miterlimit:10;" d="M373.098-550.764c0-78.383,38.862-141.926,86.802-141.926c0,0,0,0,0,0
	c5.781,0,36.532,0.944,61.378,41.569c24.846,40.625,25.424,90.904,25.424,100.357"/>
<path style="fill:#009FE3;stroke:#000000;stroke-miterlimit:10;" d="M2157.585-328.279"/>
<ellipse style="fill:#009FE3;stroke:#000000;stroke-miterlimit:10;" cx="2373.74" cy="-51.587" rx="76.261" ry="19.374"/>
<g>
	<path style="stroke:#000000;stroke-miterlimit:10;" d="M2418.931-859.655h-368.966c-96.174,0-174.138-77.964-174.138-174.138
		v-131.034c0-96.174,77.964-174.138,174.138-174.138h368.966c96.174,0,174.138,77.964,174.138,174.138v131.034
		C2593.069-937.619,2515.105-859.655,2418.931-859.655z"/>
	<polyline style="stroke:#000000;stroke-miterlimit:10;" points="2020.656,-770 2020.656,-882.069 2199.966,-882.069 	"/>
	<g>
		<path style="fill:#009FE3;stroke:#000000;stroke-miterlimit:10;" d="M2149.239-1209.776c-0.556,2.584-7.034,35.094,15.136,51.065
			c7.717,5.559,15.058,6.343,64.036,6.01c62.445-0.424,70.401-1.833,78.007-8.013c19.45-15.803,13.85-44.306,12.807-49.061
			c-6.62-30.179-39.804-61.603-84.993-61.603C2189.025-1271.38,2155.732-1239.931,2149.239-1209.776z"/>
		<path style="fill:#009FE3;stroke:#000000;stroke-miterlimit:10;" d="M2286.625-1081.582"/>
		<ellipse style="fill:#009FE3;stroke:#000000;stroke-miterlimit:10;" cx="2234.353" cy="-982.327" rx="76.261" ry="16.528"/>
		<path style="fill:#009FE3;stroke:#FFFFFF;stroke-miterlimit:10;" d="M2245.73-1152.636v160.153
			c-2.345,1.139-6.107,2.563-10.852,2.679c-5.389,0.131-9.631-1.484-12.093-2.679v-160.153"/>
		<ellipse style="fill:#009FE3;stroke:#009FE3;stroke-miterlimit:10;" cx="2234.257" cy="-1145.92" rx="15.429" ry="8.317"/>
	</g>
</g>
<path style="fill:#009FE3;stroke:#000000;stroke-miterlimit:10;" d="M169.939-386.735c-0.556,3.029-7.034,41.138,15.136,59.859
	c7.717,6.517,15.058,7.435,64.036,7.045c62.445-0.498,70.401-2.149,78.007-9.394c19.45-18.524,13.85-51.936,12.807-57.511
	c-6.62-35.377-39.804-72.213-84.993-72.213C209.725-458.949,176.432-422.083,169.939-386.735z"/>
<path style="fill:#009FE3;stroke:#000000;stroke-miterlimit:10;" d="M307.325-236.463"/>
<ellipse style="fill:#009FE3;stroke:#000000;stroke-miterlimit:10;" cx="255.052" cy="-120.114" rx="76.261" ry="19.374"/>
<path style="fill:#009FE3;stroke:#FFFFFF;stroke-miterlimit:10;" d="M266.43-319.754v187.735c-2.345,1.335-6.107,3.005-10.852,3.14
	c-5.389,0.154-9.631-1.74-12.093-3.14v-187.735"/>
<ellipse style="fill:#009FE3;stroke:#009FE3;stroke-miterlimit:10;" cx="254.957" cy="-311.882" rx="15.429" ry="9.749"/>
<path style="stroke:#000000;stroke-miterlimit:10;" d="M525.952-929.265H156.986c-96.174,0-174.138-77.964-174.138-174.138v-131.035
	c0-96.174,77.964-174.138,174.138-174.138h368.966c96.174,0,174.138,77.964,174.138,174.138v131.035
	C700.09-1007.229,622.126-929.265,525.952-929.265z"/>
<polyline style="stroke:#000000;stroke-miterlimit:10;" points="127.676,-839.61 127.676,-951.679 306.987,-951.679 "/>
<g>
	<path style="fill:#009FE3;stroke:#000000;stroke-miterlimit:10;" d="M244.883-1260.372c-0.556,2.584-7.034,35.094,15.136,51.065
		c7.717,5.56,15.058,6.343,64.036,6.01c62.445-0.424,70.401-1.833,78.007-8.013c19.45-15.803,13.85-44.306,12.807-49.061
		c-6.62-30.179-39.804-61.603-84.993-61.604C284.669-1321.975,251.376-1290.526,244.883-1260.372z"/>
	<path style="fill:#009FE3;stroke:#000000;stroke-miterlimit:10;" d="M382.269-1132.177"/>
	<ellipse style="fill:#009FE3;stroke:#000000;stroke-miterlimit:10;" cx="329.997" cy="-1032.922" rx="76.261" ry="16.528"/>
	<path style="fill:#009FE3;stroke:#FFFFFF;stroke-miterlimit:10;" d="M341.374-1203.232v160.153
		c-2.345,1.139-6.107,2.563-10.852,2.679c-5.389,0.131-9.631-1.484-12.093-2.679v-160.153"/>
	<ellipse style="fill:#009FE3;stroke:#009FE3;stroke-miterlimit:10;" cx="329.901" cy="-1196.516" rx="15.429" ry="8.317"/>
</g>
<path style="stroke:#000000;stroke-miterlimit:10;" d="M2146.632-194.524h-368.966c-96.174,0-174.138-77.964-174.138-174.138
	v-131.034c0-96.174,77.964-174.138,174.138-174.138h368.966c96.174,0,174.138,77.964,174.138,174.138v131.034
	C2320.77-272.488,2242.805-194.524,2146.632-194.524z"/>
<polyline style="stroke:#000000;stroke-miterlimit:10;" points="1748.356,-104.869 1748.356,-216.938 1927.667,-216.938 "/>
<g>
	<path style="fill:#009FE3;stroke:#000000;stroke-miterlimit:10;" d="M1865.562-525.63c-0.556,2.584-7.034,35.094,15.136,51.065
		c7.717,5.559,15.058,6.343,64.036,6.01c62.445-0.424,70.401-1.833,78.007-8.013c19.45-15.803,13.85-44.306,12.807-49.061
		c-6.62-30.179-39.804-61.603-84.993-61.604C1905.349-587.234,1872.055-555.785,1865.562-525.63z"/>
	<path style="fill:#009FE3;stroke:#000000;stroke-miterlimit:10;" d="M2002.948-397.436"/>
	<ellipse style="fill:#009FE3;stroke:#000000;stroke-miterlimit:10;" cx="1950.676" cy="-298.181" rx="76.261" ry="16.528"/>
	<path style="fill:#009FE3;stroke:#FFFFFF;stroke-miterlimit:10;" d="M1962.053-468.49v160.153
		c-2.345,1.139-6.107,2.563-10.852,2.679c-5.389,0.131-9.631-1.484-12.093-2.679V-468.49"/>
	<ellipse style="fill:#009FE3;stroke:#009FE3;stroke-miterlimit:10;" cx="1950.581" cy="-461.775" rx="15.429" ry="8.317"/>
</g>
<line style="fill:none;stroke:#FFFFFF;stroke-width:2;stroke-miterlimit:10;" x1="2234.448" y1="-1337.545" x2="2234.448" y2="-905.023"/>
<line style="fill:none;stroke:#FFFFFF;stroke-width:16;stroke-miterlimit:10;" x1="1948.216" y1="-1250.515" x2="2082.428" y2="-909.22"/>
<line style="fill:none;stroke:#FFFFFF;stroke-width:16;stroke-miterlimit:10;" x1="2234.448" y1="-1338.965" x2="2082.428" y2="-909.22"/>
<line style="fill:none;stroke:#FFFFFF;stroke-width:16;stroke-miterlimit:10;" x1="2239.278" y1="-1336.351" x2="2373.74" y2="-905.023"/>
<line style="fill:none;stroke:#FFFFFF;stroke-width:16;stroke-miterlimit:10;" x1="2528.889" y1="-1255.855" x2="2373.74" y2="-905.023"/>
<path style="stroke:#000000;stroke-miterlimit:10;" d="M943.241,773.269H574.276c-96.174,0-174.138-77.964-174.138-174.138V468.096
	c0-96.174,77.964-174.138,174.138-174.138h368.966c96.174,0,174.138,77.964,174.138,174.138v131.034
	C1117.379,695.305,1039.415,773.269,943.241,773.269z"/>
<polyline style="stroke:#000000;stroke-miterlimit:10;" points="544.966,862.924 544.966,750.855 724.276,750.855 "/>
<g>
	
		<line style="fill:none;stroke:#FFFFFF;stroke-width:7;stroke-miterlimit:10;" x1="620.277" y1="-1274.822" x2="765.513" y2="-886.536"/>
	
		<line style="fill:none;stroke:#FFFFFF;stroke-width:7;stroke-miterlimit:10;" x1="917.532" y1="-1316.282" x2="765.513" y2="-886.536"/>
	
		<line style="fill:none;stroke:#FFFFFF;stroke-width:7;stroke-miterlimit:10;" x1="922.362" y1="-1313.667" x2="1056.824" y2="-882.339"/>
	
		<line style="fill:none;stroke:#FFFFFF;stroke-width:7;stroke-miterlimit:10;" x1="1248.308" y1="-1293.646" x2="1087.594" y2="-903.554"/>
</g>
<path style="fill:#009FE3;" d="M1071.264,273.883c-9.363-6.989-18.725-13.978-28.088-20.967"/>
<text transform="matrix(1.8135 0 0 1 451.0605 561.7079)" style="fill:#E6007E; font-family:'CorbelLight'; font-size:492px;">w</text>
<g>
	
		<line style="fill:none;stroke:#FFFFFF;stroke-width:2;stroke-miterlimit:10;" x1="1025.374" y1="650.597" x2="810.935" y2="650.597"/>
	<g>
		<path style="fill:#FFFFFF;stroke:#000000;stroke-miterlimit:10;" d="M673.549,423.148c-0.556,2.584-7.034,35.094,15.136,51.065
			c7.717,5.559,15.058,6.343,64.036,6.01c62.445-0.424,70.401-1.833,78.007-8.013c19.45-15.803,13.85-44.306,12.807-49.061
			c-6.62-30.179-39.804-61.603-84.993-61.603C713.335,361.544,680.042,392.993,673.549,423.148z"/>
		<path style="fill:#FFFFFF;stroke:#000000;stroke-miterlimit:10;" d="M810.935,551.342"/>
		<ellipse style="fill:#FFFFFF;stroke:#000000;stroke-miterlimit:10;" cx="758.663" cy="650.597" rx="76.261" ry="16.528"/>
		<path style="fill:#FFFFFF;stroke:#FFFFFF;stroke-miterlimit:10;" d="M770.04,480.288v160.153
			c-2.345,1.139-6.107,2.563-10.852,2.679c-5.389,0.131-9.631-1.484-12.093-2.679V480.288"/>
		<ellipse style="fill:#FFFFFF;stroke:#009FE3;stroke-miterlimit:10;" cx="758.568" cy="487.004" rx="15.429" ry="8.317"/>
	</g>
</g>
</svg>
